HIERARCHY
ROOT Hips
{
     OFFSET 1.88212 96.90440 -13.34250
     CHANNELS 6 Xposition Yposition Zposition Zrotation Xrotation Yrotation
     JOINT Spine
     {
          OFFSET 0.00000 11.89050 0.00000
          CHANNELS 3 Zrotation Xrotation Yrotation
          JOINT Spine1
          {
               OFFSET -0.00000 25.65740 0.12766
               CHANNELS 3 Zrotation Xrotation Yrotation
               JOINT HEad
               {
                    OFFSET 0.00000 8.73416 0.01134
                    CHANNELS 3 Zrotation Xrotation Yrotation
                    End Site
                    {
                         OFFSET -0.29000 12.77420 2.51395
                    }
               }
               JOINT LeftShoulder1
               {
                    OFFSET 8.99000 -0.36225 -0.22000
                    CHANNELS 3 Zrotation Xrotation Yrotation
                    JOINT LeftArm
                    {
                         OFFSET 10.28270 -0.00338 0.32212
                         CHANNELS 3 Zrotation Xrotation Yrotation
                         JOINT LeftForeArm
                         {
                              OFFSET 32.76690 0.09914 -1.42434
                              CHANNELS 3 Zrotation Xrotation Yrotation
                              JOINT LeftHand
                              {
                                   OFFSET 27.56430 0.08536 1.02216
                                   CHANNELS 3 Zrotation Xrotation Yrotation
                                   End Site
                                   {
                                        OFFSET 16.74430 -0.60000 1.50291
                                   }
                              }
                         }
                    }
               }
               JOINT RightShoulder
               {
                    OFFSET -8.99000 -0.36225 -0.22000
                    CHANNELS 3 Zrotation Xrotation Yrotation
                    JOINT RightArm
                    {
                         OFFSET -10.28270 -0.00338 0.32212
                         CHANNELS 3 Zrotation Xrotation Yrotation
                         JOINT RightForeArm
                         {
                              OFFSET -32.89710 0.09914 -1.42434
                              CHANNELS 3 Zrotation Xrotation Yrotation
                              JOINT RightHand
                              {
                                   OFFSET -27.49210 0.08536 1.02216
                                   CHANNELS 3 Zrotation Xrotation Yrotation
                                   End Site
                                   {
                                        OFFSET -16.63120 -0.60000 1.50291
                                   }
                              }
                         }
                    }
               }
          }
     }
     JOINT LeftUpLeg
     {
          OFFSET 8.94580 -8.66707 0.10165
          CHANNELS 3 Zrotation Xrotation Yrotation
          JOINT LeftLeg
          {
               OFFSET 0.00000 -44.42270 1.37270
               CHANNELS 3 Zrotation Xrotation Yrotation
               JOINT LeftFoot
               {
                    OFFSET -0.25355 -42.09240 -1.46059
                    CHANNELS 3 Zrotation Xrotation Yrotation
                    JOINT LeftToes
                    {
                         OFFSET -0.04000 -4.41509 8.49910
                         CHANNELS 3 Zrotation Xrotation Yrotation
                         End Site
                         {
                              OFFSET 0.08000 -0.04745 9.77979
                         }
                    }
               }
          }
     }
     JOINT RightUpLeg
     {
          OFFSET -8.94580 -8.66707 0.10165
          CHANNELS 3 Zrotation Xrotation Yrotation
          JOINT RightLeg
          {
               OFFSET 0.00000 -44.42270 1.37270
               CHANNELS 3 Zrotation Xrotation Yrotation
               JOINT RightFoot
               {
                    OFFSET 0.25355 -42.09240 -1.46059
                    CHANNELS 3 Zrotation Xrotation Yrotation
                    JOINT RightToes
                    {
                         OFFSET 0.04000 -4.41509 8.49910
                         CHANNELS 3 Zrotation Xrotation Yrotation
                         End Site
                         {
                              OFFSET -0.08000 -0.13745 9.77979
                         }
                    }
               }
          }
     }
}
MOTION
Frames: 13
Frame Time: 0.01667
-13.62124 88.30398 -46.84549 10.91877 7.96969 129.13753 -8.60007 20.49737 -8.37744 -0.03919 0.11570 0.07057 -22.06656 24.46282 21.07487 -8.75903 14.55139 11.61659 -144.25208 -66.94857 -121.65532 -19.66336 61.76252 -97.14938 16.80162 4.08464 -7.17924 14.06137 18.05816 9.03963 72.02184 7.68204 75.03401 6.19273 20.52954 85.47679 15.67410 15.41819 9.15924 12.80751 -6.75314 -24.83402 -20.67470 5.32460 63.30965 50.45403 -0.01460 -0.00227 -40.43754 -2.83378 -46.85799 -29.65045 16.36666 14.82161 40.82152 -0.04287 -40.19991 -23.53598 0.00981 0.01679 5.69095 -26.06763 14.62468 
-13.97413 88.53061 -48.12807 11.03909 7.62641 128.21101 -7.57880 21.84326 -5.95470 -0.04336 0.10534 0.04987 -22.11831 23.84059 19.04491 -8.76820 13.08239 9.18898 -145.12692 -67.18420 -122.30502 -19.70193 62.11963 -96.76035 15.97941 6.54489 -7.40988 13.94719 15.94649 7.17706 72.51888 7.24638 74.49748 5.09806 21.13058 86.83170 15.65775 14.97531 9.54637 13.21700 -6.34821 -26.76227 -22.09895 3.62315 69.05008 51.06321 -0.00439 0.01710 -40.29022 -5.41166 -49.77587 -30.04976 16.57449 14.48901 41.62253 -0.97647 -38.58268 -24.80363 0.01215 0.01507 5.69400 -25.66124 14.32123 
-14.46321 88.70547 -49.33002 11.18326 7.39288 127.42425 -6.91494 23.12088 -3.72777 -0.01431 0.00080 -0.00978 -22.03650 23.42130 17.36006 -8.69201 11.96484 7.09568 -145.49178 -67.35494 -122.47527 -19.79580 62.27636 -96.39041 16.65687 4.86033 -7.52184 13.92023 14.24551 5.40438 73.16795 6.77358 73.89481 4.07023 21.88329 88.40828 15.60443 14.47640 9.78960 13.56257 -6.15070 -28.39981 -23.52307 1.91393 73.96165 51.94104 -0.00493 0.02468 -40.35612 -7.83105 -52.31131 -30.29226 16.52524 14.13620 42.38647 -1.53829 -37.31506 -26.06185 0.01455 0.01413 5.78066 -25.23349 14.10546 
-15.07464 88.84768 -50.41686 11.34579 7.24065 126.76380 -6.53463 24.29325 -1.71633 -0.01014 -0.00462 -0.01523 -21.73628 23.03555 15.85511 -8.46392 10.98746 5.21347 -145.43025 -67.46897 -122.24052 -19.85987 62.30713 -96.12589 16.08577 6.45113 -7.62053 14.03297 12.72710 3.73762 73.89197 6.26225 73.29368 3.10798 22.67645 90.12044 15.58993 14.06592 9.87101 14.00774 -5.66941 -28.61527 -24.83711 0.30652 76.88731 53.03411 -0.00392 0.02758 -40.61515 -10.12307 -54.49894 -30.43335 16.23216 13.77924 43.03495 -1.71241 -36.36966 -27.17597 0.01696 0.01333 5.93649 -24.76423 13.94613 
-15.76382 88.96481 -51.38205 11.51651 7.13856 126.21442 -6.37190 25.34015 0.07659 -0.00817 -0.00447 -0.01606 -21.30741 22.71925 14.60852 -8.12210 10.19333 3.59578 -145.07802 -67.53388 -121.73527 -19.92093 62.22145 -95.95113 16.45563 5.64235 -7.60774 14.23704 11.45958 2.25660 74.64462 5.70309 72.74528 2.20517 23.43665 91.88493 15.59468 13.67175 9.85623 14.46795 -4.97665 -27.55469 -26.04358 -1.05408 78.06376 54.32985 -0.00221 0.02826 -41.02875 -12.23309 -56.36326 -30.51377 15.72529 13.43090 43.54792 -1.51726 -35.68835 -28.08942 0.01920 0.01275 6.14248 -24.28532 13.82520 
-16.48164 89.06096 -52.23682 11.68595 7.06039 125.76382 -6.36768 26.24988 1.65134 -0.00646 -0.00372 -0.01602 -20.78269 22.44903 13.61083 -7.68012 9.55038 2.22220 -144.58499 -67.54109 -121.10396 -19.96278 62.09556 -95.86559 16.05860 6.71085 -7.59751 14.50817 10.41720 0.99563 75.40144 5.09810 72.28883 1.35304 24.12234 93.62778 15.65070 13.35505 9.75631 14.87119 -4.11065 -25.34853 -27.12281 -2.06570 77.69555 55.79739 -0.00050 0.02699 -41.56642 -14.10796 -57.93308 -30.56314 15.04300 13.10116 43.93109 -0.98240 -35.20241 -28.79306 0.02100 0.01222 6.37942 -23.80452 13.71222 
-17.19937 89.14142 -52.98931 11.84597 6.97990 125.40737 -6.46300 27.01548 3.00511 -0.00491 -0.00271 -0.01544 -20.18815 22.20620 12.84320 -7.14835 9.02954 1.08037 -144.08105 -67.47929 -120.48140 -20.01657 61.95252 -95.82492 16.26971 6.40061 -7.51021 14.81669 9.57333 -0.03031 76.15861 4.45650 71.95372 0.54677 24.71447 95.28870 15.73175 13.05402 9.62704 15.19622 -3.47443 -23.23616 -28.18467 -2.80878 77.10940 57.31929 0.00120 0.02369 -42.20613 -15.74148 -59.23156 -30.65100 14.27100 12.80534 43.85656 -0.31157 -34.81809 -29.10067 0.00352 0.00084 6.74435 -23.02418 13.80425 
-17.88994 89.20870 -53.65182 11.98993 6.89101 125.15276 -6.61396 27.64456 4.12785 -0.00359 -0.00158 -0.01445 -19.54600 21.98112 12.28367 -6.54976 8.60892 0.15755 -143.63776 -67.32912 -119.94667 -20.05843 61.83775 -95.82413 16.03707 7.17216 -7.43273 15.13461 8.90573 -0.82814 76.92063 3.79802 71.75921 -0.21393 25.21115 96.82606 15.84419 12.79317 9.47126 15.46221 -3.00848 -21.23999 -29.18784 -3.26719 76.33547 58.80957 0.00272 0.01949 -42.92931 -17.14251 -60.28378 -30.75367 13.29341 12.52991 45.04751 2.34243 -34.23303 -32.57301 0.14917 0.04329 9.78912 -24.24076 12.61663 
-18.52799 89.26530 -54.23689 12.12042 6.78799 125.01077 -6.77656 28.14979 5.01170 -0.00254 -0.00047 -0.01317 -18.87341 21.77327 11.90816 -5.91073 8.27355 -0.54653 -143.25961 -67.07568 -119.51985 -20.08269 61.75077 -95.85061 16.20343 7.13452 -7.30077 15.44663 8.39540 -1.42458 77.68661 3.14881 71.71144 -0.92638 25.62126 98.22009 15.96435 12.53644 9.31616 15.70516 -2.64453 -19.38421 -30.08762 -3.37044 75.38018 60.06791 0.00316 0.01330 -43.66629 -18.31623 -61.09836 -30.87341 12.04016 12.27044 46.67288 6.26921 -33.82479 -30.14293 0.05103 0.10564 6.90753 -26.12904 10.74285 
-19.09524 89.31557 -54.75556 12.23972 6.67324 124.98943 -6.92235 28.54422 5.65797 -0.00178 0.00054 -0.01174 -18.18266 21.58846 11.69078 -5.26330 8.01402 -1.03706 -142.90640 -66.70906 -119.17330 -20.05806 61.70010 -95.91866 16.11501 7.69627 -7.16052 15.75064 8.02538 -1.85409 78.44613 2.53138 71.80261 -1.58990 25.95910 99.46983 16.08965 12.30677 9.15728 15.93025 -2.35150 -17.68843 -30.87057 -3.21803 74.26629 61.13063 0.00327 0.00860 -44.37994 -19.25787 -61.69147 -30.98337 10.49487 12.02168 48.01008 10.99996 -33.21021 -30.04017 0.07268 0.07859 6.67384 -28.21231 8.41482 
-19.59471 89.36836 -55.21109 12.34626 6.54803 125.08539 -7.03608 28.83476 6.08444 -0.00125 0.00142 -0.01028 -17.48301 21.43418 11.60373 -4.63321 7.82311 -1.32719 -142.53336 -66.23154 -118.86945 -19.97210 61.66799 -96.03474 16.26872 7.75885 -6.97204 16.04932 7.77928 -2.14407 79.18451 1.95367 72.01504 -2.20932 26.23765 100.58828 16.20051 12.09678 9.01321 16.13138 -2.12406 -16.15508 -31.51790 -2.87135 73.02430 62.03013 0.00312 0.00521 -45.05365 -19.97234 -62.07887 -31.06140 8.79439 11.79055 48.55338 14.08932 -32.98348 -29.02744 -0.01141 -0.00219 5.81036 -28.63759 7.37138 
-20.04419 89.43559 -55.60057 12.43637 6.41209 125.28752 -7.10960 29.02698 6.31826 -0.00074 0.00208 -0.00887 -16.78348 21.31560 11.61822 -4.03546 7.69262 -1.44483 -142.12424 -65.65247 -118.58137 -19.80406 61.64972 -96.21699 16.25671 8.14615 -6.75827 16.34285 7.63988 -2.30722 79.88981 1.40655 72.32748 -2.79570 26.46509 101.59516 16.29128 11.92557 8.87780 16.29795 -1.97260 -14.77500 -32.01054 -2.37561 71.68699 62.79724 0.00275 0.00273 -45.68104 -20.47432 -62.28886 -31.09759 7.07829 11.59232 48.67715 16.25556 -32.97906 -28.74068 0.00578 -0.00296 5.82727 -28.46688 6.98174 
-20.46291 89.52693 -55.91949 12.50565 6.26541 125.58251 -7.13778 29.12864 6.38769 -0.00022 0.00273 -0.00755 -16.09363 21.23364 11.70638 -3.47396 7.61240 -1.42543 -141.69962 -64.98660 -118.30793 -19.55091 61.63761 -96.47068 16.37656 8.22552 -6.50732 16.62278 7.58906 -2.35168 80.56037 0.87603 72.72217 -3.36141 26.64476 102.51099 16.35800 11.78451 8.75167 16.41760 -1.91236 -13.53659 -32.33335 -1.77522 70.28663 63.46348 0.00225 0.00088 -46.25829 -20.77768 -62.35518 -31.08595 5.45325 11.44316 48.57195 17.88728 -33.10462 -28.23011 0.01115 -0.00129 5.74639 -27.98715 6.99718 
